<svg width="28" height="30" viewBox="0 0 28 30" fill="none" xmlns="http://www.w3.org/2000/svg">
<path d="M4.00002 30C3.08336 30 2.29836 29.6733 1.64502 29.02C0.99169 28.3667 0.665579 27.5822 0.66669 26.6667V11.6667C0.66669 11.1389 0.785023 10.6389 1.02169 10.1667C1.25836 9.69446 1.58447 9.30556 2.00002 9.00001L12 1.50001C12.3056 1.27779 12.625 1.11112 12.9584 1.00001C13.2917 0.888899 13.6389 0.833344 14 0.833344C14.3611 0.833344 14.7084 0.888899 15.0417 1.00001C15.375 1.11112 15.6945 1.27779 16 1.50001L26 9.00001C26.4167 9.30556 26.7434 9.69446 26.98 10.1667C27.2167 10.6389 27.3345 11.1389 27.3334 11.6667V26.6667C27.3334 27.5833 27.0067 28.3683 26.3534 29.0217C25.7 29.675 24.9156 30.0011 24 30H17.3334V18.3333H10.6667V30H4.00002Z" fill="#B8B8B8"/>
</svg>
