<svg width="24" height="30" viewBox="0 0 24 30" fill="none" xmlns="http://www.w3.org/2000/svg">
<path d="M3.66665 24.9167L12 21.3333L20.3333 24.9167V3.33334H3.66665V24.9167ZM2.66665 29C2.11109 29.2222 1.58331 29.1733 1.08331 28.8533C0.583313 28.5333 0.333313 28.0689 0.333313 27.46V3.33334C0.333313 2.41667 0.659979 1.63167 1.31331 0.978336C1.96665 0.325003 2.75109 -0.00110828 3.66665 2.82966e-06H20.3333C21.25 2.82966e-06 22.035 0.32667 22.6883 0.980003C23.3416 1.63334 23.6678 2.41778 23.6666 3.33334V27.4583C23.6666 28.0694 23.4166 28.535 22.9166 28.855C22.4166 29.175 21.8889 29.2233 21.3333 29L12 25L2.66665 29Z" fill="#B8B8B8"/>
</svg>
