<svg width="34" height="34" viewBox="0 0 34 34" fill="none" xmlns="http://www.w3.org/2000/svg">
<path d="M17 0.333344C19.1887 0.333344 21.3559 0.76444 23.378 1.60202C25.4001 2.4396 27.2374 3.66725 28.7851 5.2149C30.3327 6.76254 31.5604 8.59986 32.398 10.622C33.2356 12.644 33.6666 14.8113 33.6666 17C33.6666 21.4203 31.9107 25.6595 28.7851 28.7851C25.6595 31.9107 21.4203 33.6667 17 33.6667C14.8113 33.6667 12.644 33.2356 10.6219 32.398C8.59983 31.5604 6.76251 30.3328 5.21487 28.7851C2.08926 25.6595 0.333313 21.4203 0.333313 17C0.333313 12.5797 2.08926 8.3405 5.21487 5.2149C8.34047 2.08929 12.5797 0.333344 17 0.333344ZM17 3.66668C13.4638 3.66668 10.0724 5.07143 7.57189 7.57192C5.0714 10.0724 3.66665 13.4638 3.66665 17C3.66665 20.5362 5.0714 23.9276 7.57189 26.4281C10.0724 28.9286 13.4638 30.3333 17 30.3333C20.5362 30.3333 23.9276 28.9286 26.4281 26.4281C28.9286 23.9276 30.3333 20.5362 30.3333 17C30.3333 13.4638 28.9286 10.0724 26.4281 7.57192C23.9276 5.07143 20.5362 3.66668 17 3.66668ZM17 14.5C17.663 14.5 18.2989 14.7634 18.7677 15.2322C19.2366 15.7011 19.5 16.337 19.5 17C19.5 17.6631 19.2366 18.2989 18.7677 18.7678C18.2989 19.2366 17.663 19.5 17 19.5C16.3369 19.5 15.7011 19.2366 15.2322 18.7678C14.7634 18.2989 14.5 17.6631 14.5 17C14.5 16.337 14.7634 15.7011 15.2322 15.2322C15.7011 14.7634 16.3369 14.5 17 14.5ZM9.49998 14.5C10.163 14.5 10.7989 14.7634 11.2677 15.2322C11.7366 15.7011 12 16.337 12 17C12 17.6631 11.7366 18.2989 11.2677 18.7678C10.7989 19.2366 10.163 19.5 9.49998 19.5C8.83694 19.5 8.20105 19.2366 7.73221 18.7678C7.26337 18.2989 6.99998 17.6631 6.99998 17C6.99998 16.337 7.26337 15.7011 7.73221 15.2322C8.20105 14.7634 8.83694 14.5 9.49998 14.5ZM24.5 14.5C25.163 14.5 25.7989 14.7634 26.2677 15.2322C26.7366 15.7011 27 16.337 27 17C27 17.6631 26.7366 18.2989 26.2677 18.7678C25.7989 19.2366 25.163 19.5 24.5 19.5C23.8369 19.5 23.2011 19.2366 22.7322 18.7678C22.2634 18.2989 22 17.6631 22 17C22 16.337 22.2634 15.7011 22.7322 15.2322C23.2011 14.7634 23.8369 14.5 24.5 14.5Z" fill="#B8B8B8"/>
</svg>
