<svg width="17" height="16" viewBox="0 0 17 16" fill="none" xmlns="http://www.w3.org/2000/svg">
<path d="M13.4583 6.9375V5.73334H10.3417V10.2667H11.5458V8.85H12.9625V7.64584H11.5458V6.9375H13.4583V6.9375ZM8.28749 5.73334H9.49166V10.2667H8.28749V5.73334ZM5.73749 6.86667C6.02083 6.86667 6.37499 7.00834 6.58749 7.22084L7.43749 6.5125C7.01249 6.01667 6.37499 5.73334 5.73749 5.73334C4.46249 5.73334 3.47083 6.725 3.47083 8C3.47083 9.275 4.46249 10.2667 5.73749 10.2667C6.44583 10.2667 7.01249 9.98334 7.43749 9.4875V7.71667H5.45416V8.56667H6.30416V8.99167C6.16249 9.0625 5.94999 9.13334 5.73749 9.13334C5.09999 9.13334 4.60416 8.6375 4.60416 8C4.60416 7.43334 5.09999 6.86667 5.73749 6.86667V6.86667Z" fill="#4A99E9"/>
<path d="M14.5209 0.930847H2.47919C1.60085 0.930847 0.885437 1.64414 0.885437 2.52247V13.5066C0.885437 14.3835 1.60085 15.0975 2.47919 15.0975H14.5209C15.3992 15.0975 16.1146 14.3835 16.1146 13.5066V2.52247C16.1146 1.64414 15.3992 0.930847 14.5209 0.930847V0.930847ZM15.0521 13.5066C15.0521 13.797 14.8141 14.035 14.5209 14.035H2.47919C2.18594 14.035 1.94794 13.797 1.94794 13.5066V2.52247C1.94794 2.23064 2.18594 1.99335 2.47919 1.99335H14.5209C14.8141 1.99335 15.0521 2.23064 15.0521 2.52247V13.5066Z" fill="#4A99E9"/>
</svg>
