<svg width="12" height="12" viewBox="0 0 12 12" fill="none" xmlns="http://www.w3.org/2000/svg">
<path d="M11.5591 10.9408L9.42413 8.80582C10.197 7.88999 10.6666 6.70816 10.6666 5.41666C10.6666 2.51749 8.31579 0.166656 5.41663 0.166656C2.51746 0.166656 0.166626 2.51749 0.166626 5.41666C0.166626 8.31582 2.51746 10.6667 5.41663 10.6667C6.70871 10.6667 7.88996 10.1977 8.80463 9.42416L10.9396 11.5592C11.0254 11.6443 11.138 11.6875 11.2488 11.6875C11.3596 11.6875 11.4734 11.6449 11.558 11.5592C11.73 11.3882 11.73 11.1117 11.5591 10.9408ZM1.04163 5.41666C1.04163 3.00457 3.00454 1.04166 5.41663 1.04166C7.82871 1.04166 9.79163 3.00457 9.79163 5.41666C9.79163 7.82874 7.82871 9.79166 5.41663 9.79166C3.00454 9.79166 1.04163 7.82874 1.04163 5.41666Z" fill="#AAAAAA"/>
</svg>
